# xmcd
#
# Track frame offsets: 
#        150
#        18830
#        38177
#        56534
#        76938
#        98079
#        118807
#        135762
#        156516
#        176605
#        192632
#        208127
#
# Disc length: 3132 seconds
#
# Revision: 0
# Processed by: cddbd v1.5.2PL0 Copyright (c) Steve Scherf et al.
# Submitted via: ExactAudioCopy v0.99pb4
#
DISCID=9e0c3a0c
DTITLE=ROUSTABOUT - 100% NEWFOUNDLANDERS
DYEAR=2008
DGENRE=Local Country
TTITLE0=Turn This Ship Around
TTITLE1=100% Newfoundlander
TTITLE2=Who's Gonna Farm Your Oil
TTITLE3=Ol' Newfoundland
TTITLE4=Last of the Reasons
TTITLE5=Travelled In Time
TTITLE6=Teeth Upon The Windowsill
TTITLE7=The Place We Come From
TTITLE8=A Piece of the Rock
TTITLE9=Newfoundland's Gonna Rise Again
TTITLE10=Remember to Forget
TTITLE11=Can't Find Newfoundland
EXTD=
EXTT0=
EXTT1=
EXTT2=
EXTT3=
EXTT4=
EXTT5=
EXTT6=
EXTT7=
EXTT8=
EXTT9=
EXTT10=
EXTT11=
PLAYORDER=
